<?xml version="1.0" encoding="utf-8"?>
<!-- Generator: Adobe Illustrator 16.0.0, SVG Export Plug-In . SVG Version: 6.00 Build 0)  -->
<!DOCTYPE svg PUBLIC "-//W3C//DTD SVG 1.1//EN" "http://www.w3.org/Graphics/SVG/1.1/DTD/svg11.dtd">
<svg version="1.1" id="Capa_1" xmlns="http://www.w3.org/2000/svg" xmlns:xlink="http://www.w3.org/1999/xlink" x="0px" y="0px"
	 width="50px" height="50px" viewBox="-18 -18 50 50" enable-background="new -18 -18 50 50" xml:space="preserve">
	 <style>
	path,rect,polygon { fill:#3c3c3c !important}
</style>
<path d="M7.658-14.631c0.766-0.772,0.766-2.02,0-2.792c-0.762-0.772-1.999-0.772-2.764,0L-17.424,5.124
	c-0.769,0.775-0.769,2.023,0,2.794l22.318,22.54c0.765,0.772,2.002,0.772,2.764,0c0.766-0.771,0.766-2.018,0-2.789l-20.356-21.15
	L7.658-14.631z"/>
<path d="M-16.51,6.743c0.016,1.089,0.911,1.963,1.999,1.954l44.232-0.197c1.082-0.006,1.947-0.891,1.931-1.976
	c-0.019-1.088-0.91-1.96-1.995-1.949L-12.211,4.34L-16.51,6.743z"/>
<path d="M27.086,3.627"/>
</svg>
