<?xml version="1.0" encoding="utf-8"?>
<!-- Generator: Adobe Illustrator 16.0.0, SVG Export Plug-In . SVG Version: 6.00 Build 0)  -->
<!DOCTYPE svg PUBLIC "-//W3C//DTD SVG 1.1//EN" "http://www.w3.org/Graphics/SVG/1.1/DTD/svg11.dtd">
<svg version="1.1" id="Layer_1" xmlns="http://www.w3.org/2000/svg" xmlns:xlink="http://www.w3.org/1999/xlink" x="0px" y="0px"
	 width="512px" height="512px" viewBox="0 0 512 512" enable-background="new 0 0 512 512" xml:space="preserve">
<g>
	<g id="Instagram_1_">
		<g id="Instagram">
			<path id="Head" fill="#8A5B4E" d="M449.609,1.395H65.977c-35.169,0-63.938,28.769-63.938,63.938v127.878h511.509V65.333
				C513.548,30.164,484.778,1.395,449.609,1.395z"/>
			<path id="Red_x5F_Stripes" fill="#EF4040" d="M34.008,10.987v182.224h31.969V1.395C54.786,1.395,43.601,4.595,34.008,10.987z"/>
			<rect id="Yellow_x5F_Stripes" x="65.977" y="1.395" fill="#FFD149" width="31.97" height="191.816"/>
			<rect id="Green_x5F_Stripes" x="97.947" y="1.395" fill="#56BB6F" width="31.969" height="191.816"/>
			<rect id="Blue_x5F_Stripes" x="129.916" y="1.395" fill="#6CC9F2" width="31.969" height="191.816"/>
			<path id="Lens_1_" fill="#162838" d="M417.641,49.349c26.474,0,47.953,21.472,47.953,47.955s-21.479,47.954-47.953,47.954
				c-26.476,0-47.954-21.471-47.954-47.954S391.165,49.349,417.641,49.349z"/>
			<path id="Lens_x5F_Outer" fill="#2D4456" d="M417.641,73.326c13.237,0,23.976,10.732,23.976,23.978
				c0,13.245-10.738,23.976-23.976,23.976c-13.238,0-23.978-10.731-23.978-23.976C393.663,84.058,404.402,73.326,417.641,73.326z"/>
			<path id="Lens_x5F_Inside" fill="#48647B" d="M417.641,89.311c4.417,0,7.992,3.575,7.992,7.993c0,4.417-3.575,7.992-7.992,7.992
				c-4.419,0-7.993-3.574-7.993-7.992C409.647,92.885,413.222,89.311,417.641,89.311z"/>
			<path id="Body" fill="#E5E0DC" d="M2.039,193.211v255.753c0,35.168,28.769,63.938,63.938,63.938h383.632
				c35.169,0,63.938-28.771,63.938-63.938V193.211H2.039z"/>
			<g id="Shadow">
				<polygon fill="#76493E" points="396.862,193.211 360.101,154.849 360.101,193.211 				"/>
				<path fill="#D0CBC5" d="M321.731,193.211L155.493,359.458l153.454,153.445h140.662c35.169,0,63.938-28.771,63.938-63.938
					v-139.07L396.862,193.211H321.731z"/>
			</g>
			<circle id="Lens" fill="#DDD7D3" cx="257.793" cy="257.149" r="143.862"/>
			<path id="Inside_x5F_Lens" fill="#162838" d="M257.793,145.257c61.801,0,111.894,50.092,111.894,111.893
				c0,61.801-50.093,111.893-111.894,111.893c-61.8,0-111.892-50.092-111.892-111.893
				C145.901,195.349,195.993,145.257,257.793,145.257z"/>
			<circle id="_x32_nd_Inner_Circle" fill="#2D4456" cx="257.793" cy="257.15" r="63.938"/>
			<circle id="Middle_Circle" fill="#162838" cx="257.793" cy="257.149" r="31.969"/>
			<path id="Reflection" fill="#48647B" d="M297.754,193.211c13.239,0,23.978,10.731,23.978,23.976
				c0,13.246-10.738,23.978-23.978,23.978c-13.236,0-23.975-10.732-23.975-23.978C273.779,203.943,284.518,193.211,297.754,193.211z
				"/>
		</g>
	</g>
</g>
</svg>
