<?xml version="1.0" encoding="utf-8"?>
<!-- Generator: Adobe Illustrator 16.0.0, SVG Export Plug-In . SVG Version: 6.00 Build 0)  -->
<!DOCTYPE svg PUBLIC "-//W3C//DTD SVG 1.1//EN" "http://www.w3.org/Graphics/SVG/1.1/DTD/svg11.dtd">
<svg version="1.1" id="Layer_1" xmlns="http://www.w3.org/2000/svg" xmlns:xlink="http://www.w3.org/1999/xlink" x="0px" y="0px"
	 width="14px" height="14px" viewBox="0 0 14 14" enable-background="new 0 0 14 14" xml:space="preserve">
<path display="none" fill="#191919" d="M3,0H1C0.447,0,0,0.447,0,1v2c0,0.553,0.447,1,1,1h2c0.553,0,1-0.447,1-1V1
	C4,0.447,3.553,0,3,0z M8,0H6C5.447,0,5,0.447,5,1v2c0,0.553,0.447,1,1,1h2c0.553,0,1-0.447,1-1V1C9,0.447,8.553,0,8,0z M13,0h-2
	c-0.553,0-1,0.447-1,1v2c0,0.553,0.447,1,1,1h2c0.553,0,1-0.447,1-1V1C14,0.447,13.553,0,13,0z M3,5H1C0.447,5,0,5.447,0,6v2
	c0,0.553,0.447,1,1,1h2c0.553,0,1-0.447,1-1V6C4,5.447,3.553,5,3,5z M8,5H6C5.447,5,5,5.447,5,6v2c0,0.553,0.447,1,1,1h2
	c0.553,0,1-0.447,1-1V6C9,5.447,8.553,5,8,5z M13,5h-2c-0.553,0-1,0.447-1,1v2c0,0.553,0.447,1,1,1h2c0.553,0,1-0.447,1-1V6
	C14,5.447,13.553,5,13,5z M3,10H1c-0.553,0-1,0.447-1,1v2c0,0.553,0.447,1,1,1h2c0.553,0,1-0.447,1-1v-2C4,10.447,3.553,10,3,10z
	 M8,10H6c-0.553,0-1,0.447-1,1v2c0,0.553,0.447,1,1,1h2c0.553,0,1-0.447,1-1v-2C9,10.447,8.553,10,8,10z M13,10h-2
	c-0.553,0-1,0.447-1,1v2c0,0.553,0.447,1,1,1h2c0.553,0,1-0.447,1-1v-2C14,10.447,13.553,10,13,10z"/>
<g display="none">
	<rect x="-0.047" display="inline" fill="#191919" width="4.047" height="4"/>
	<rect x="4.977" display="inline" fill="#191919" width="4.046" height="4"/>
	<rect x="9.953" display="inline" fill="#191919" width="4.047" height="4"/>
	<g display="inline">
		<rect x="-0.023" y="5" fill="#191919" width="4.047" height="4"/>
		<rect x="5" y="5" fill="#191919" width="4.047" height="4"/>
		<rect x="9.977" y="5" fill="#191919" width="4.047" height="4"/>
	</g>
	<g display="inline">
		<rect y="10" fill="#191919" width="4.047" height="4"/>
		<rect x="5.023" y="10" fill="#191919" width="4.047" height="4"/>
		<rect x="10" y="10" fill="#191919" width="4.047" height="4"/>
	</g>
</g>
<g>
	<polygon fill="#030303" points="1.233,1.28 3.157,1.28 5.454,1.28 5.454,-0.292 3.157,-0.292 -0.338,-0.292 -0.338,5.501 
		1.233,5.501 	"/>
	<polygon fill="#030303" points="12.768,10.063 12.768,12.791 8.544,12.814 8.544,14.385 14.338,14.385 14.338,10.063 14.338,8.593 
		12.768,8.593 	"/>
	<polygon fill="#030303" points="1.233,12.814 1.233,8.593 -0.338,8.593 -0.338,14.385 5.454,14.385 5.454,12.814 	"/>
	<polygon fill="#030303" points="12.768,1.28 12.768,5.501 14.338,5.501 14.338,-0.292 8.544,-0.292 8.544,1.28 	"/>
</g>
</svg>
