<?xml version="1.0" encoding="utf-8"?>
<!-- Generator: Adobe Illustrator 16.0.0, SVG Export Plug-In . SVG Version: 6.00 Build 0)  -->
<!DOCTYPE svg PUBLIC "-//W3C//DTD SVG 1.1//EN" "http://www.w3.org/Graphics/SVG/1.1/DTD/svg11.dtd">
<svg version="1.1" id="Layer_1" xmlns="http://www.w3.org/2000/svg" xmlns:xlink="http://www.w3.org/1999/xlink" x="0px" y="0px"
	 width="14px" height="14px" viewBox="0 0 14 14" enable-background="new 0 0 14 14" xml:space="preserve">
<path display="none" fill="#191919" d="M3,0H1C0.447,0,0,0.447,0,1v2c0,0.553,0.447,1,1,1h2c0.553,0,1-0.447,1-1V1
	C4,0.447,3.553,0,3,0z M8,0H6C5.447,0,5,0.447,5,1v2c0,0.553,0.447,1,1,1h2c0.553,0,1-0.447,1-1V1C9,0.447,8.553,0,8,0z M13,0h-2
	c-0.553,0-1,0.447-1,1v2c0,0.553,0.447,1,1,1h2c0.553,0,1-0.447,1-1V1C14,0.447,13.553,0,13,0z M3,5H1C0.447,5,0,5.447,0,6v2
	c0,0.553,0.447,1,1,1h2c0.553,0,1-0.447,1-1V6C4,5.447,3.553,5,3,5z M8,5H6C5.447,5,5,5.447,5,6v2c0,0.553,0.447,1,1,1h2
	c0.553,0,1-0.447,1-1V6C9,5.447,8.553,5,8,5z M13,5h-2c-0.553,0-1,0.447-1,1v2c0,0.553,0.447,1,1,1h2c0.553,0,1-0.447,1-1V6
	C14,5.447,13.553,5,13,5z M3,10H1c-0.553,0-1,0.447-1,1v2c0,0.553,0.447,1,1,1h2c0.553,0,1-0.447,1-1v-2C4,10.447,3.553,10,3,10z
	 M8,10H6c-0.553,0-1,0.447-1,1v2c0,0.553,0.447,1,1,1h2c0.553,0,1-0.447,1-1v-2C9,10.447,8.553,10,8,10z M13,10h-2
	c-0.553,0-1,0.447-1,1v2c0,0.553,0.447,1,1,1h2c0.553,0,1-0.447,1-1v-2C14,10.447,13.553,10,13,10z"/>
<g>
	<g display="none">
		<rect x="-0.01" y="7.777" display="inline" fill="#191919" width="6.295" height="6.223"/>
		<rect x="7.804" y="7.777" display="inline" fill="#191919" width="6.295" height="6.223"/>
	</g>
	<g>
		<rect y="8.702" width="5.299" height="0.948"/>
		<rect y="13.052" width="5.299" height="0.948"/>
		<rect x="4.386" y="8.702" width="0.948" height="5.298"/>
		<rect y="8.702" width="0.948" height="5.298"/>
	</g>
	<g>
		<rect x="8.697" y="8.702" width="5.299" height="0.948"/>
		<rect x="8.697" y="13.053" width="5.299" height="0.948"/>
		<rect x="13.052" y="8.702" width="0.948" height="5.298"/>
		<rect x="8.697" y="8.702" width="0.949" height="5.298"/>
	</g>
	<g>
		<rect width="5.299" height="0.948"/>
		<rect x="0.036" y="4.35" width="5.299" height="0.948"/>
		<rect x="4.386" width="0.949" height="5.298"/>
		<rect width="0.948" height="5.298"/>
	</g>
	<g>
		<rect x="8.698" width="5.298" height="0.948"/>
		<rect x="8.698" y="4.35" width="5.298" height="0.948"/>
		<rect x="13.052" width="0.948" height="5.298"/>
		<rect x="8.701" width="0.949" height="5.298"/>
	</g>
</g>
</svg>
