<?xml version="1.0" encoding="utf-8"?>
<!-- Generator: Adobe Illustrator 16.0.0, SVG Export Plug-In . SVG Version: 6.00 Build 0)  -->
<!DOCTYPE svg PUBLIC "-//W3C//DTD SVG 1.1//EN" "http://www.w3.org/Graphics/SVG/1.1/DTD/svg11.dtd">
<svg version="1.1" id="Layer_1" xmlns="http://www.w3.org/2000/svg" xmlns:xlink="http://www.w3.org/1999/xlink" x="0px" y="0px"
	 width="32px" height="32px" viewBox="0 0 32 32" enable-background="new 0 0 32 32" xml:space="preserve">
	 
<style>
	path,rect,polygon { fill:#3c3c3c !important}
</style>
<path d="M14.638,28.751c-0.462,0.467-0.462,1.221,0,1.688c0.461,0.467,1.21,0.467,1.672,0l13.501-13.637
	c0.464-0.469,0.464-1.224,0-1.69L16.31,1.476c-0.462-0.466-1.21-0.466-1.672,0c-0.462,0.467-0.462,1.222,0,1.688l12.314,12.794
	L14.638,28.751z"/>
<path d="M29.258,15.822c-0.01-0.659-0.551-1.187-1.209-1.181L1.294,14.76c-0.656,0.004-1.179,0.539-1.169,1.195
	c0.011,0.658,0.551,1.185,1.207,1.179l25.325,0.141L29.258,15.822z"/>
<path d="M2.886,17.707"/>
</svg>