<?xml version="1.0" encoding="utf-8"?>
<!-- Generator: Adobe Illustrator 16.0.0, SVG Export Plug-In . SVG Version: 6.00 Build 0)  -->
<!DOCTYPE svg PUBLIC "-//W3C//DTD SVG 1.1//EN" "http://www.w3.org/Graphics/SVG/1.1/DTD/svg11.dtd">
<svg version="1.1" id="Capa_1" xmlns="http://www.w3.org/2000/svg" xmlns:xlink="http://www.w3.org/1999/xlink" x="0px" y="0px"
	 width="26px" height="22.833px" viewBox="0 0 26 22.833" enable-background="new 0 0 26 22.833" xml:space="preserve">
<g>
	<g>
		<path fill="#5B5B5B" d="M24.375,3.333H1.625C0.728,3.333,0,4.061,0,4.958v16.25c0,0.896,0.728,1.625,1.625,1.625h22.75
			c0.896,0,1.625-0.729,1.625-1.625V4.958C26,4.061,25.271,3.333,24.375,3.333z M1.625,9.581l6.237,4.24L1.625,20.06V9.581z
			 M2.774,21.208l6.456-6.455l3.773,2.563l3.752-2.584l6.472,6.476H2.774L2.774,21.208z M24.375,20.06l-6.264-6.265l6.264-4.309
			V20.06z M24.375,7.587l-0.034-0.049L13,15.351L1.625,7.618v-2.66h22.75V7.587z"/>
	</g>
</g>
</svg>
