<?xml version="1.0" encoding="utf-8"?>
<!-- Generator: Adobe Illustrator 16.0.0, SVG Export Plug-In . SVG Version: 6.00 Build 0)  -->
<!DOCTYPE svg PUBLIC "-//W3C//DTD SVG 1.1//EN" "http://www.w3.org/Graphics/SVG/1.1/DTD/svg11.dtd">
<svg version="1.1" id="Capa_1" xmlns="http://www.w3.org/2000/svg" xmlns:xlink="http://www.w3.org/1999/xlink" x="0px" y="0px"
	 width="50.625px" height="32px" viewBox="0 0 50.625 32" enable-background="new 0 0 50.625 32" xml:space="preserve">
	<style>
		path,rect,polygon { fill:#3c3c3c !important}
	</style>
<g>
	<g id="User">
		<g>
			<path d="M15.875,22c4.924,0,8.93-4.936,8.93-11c0-6.064-4.007-11-8.93-11c-2.428,0-4.697,1.174-6.388,3.305
				c-1.64,2.065-2.542,4.799-2.542,7.696C6.945,17.064,10.951,22,15.875,22z M15.875,2.001c3.829,0,6.945,4.037,6.945,9
				c0,4.962-3.116,9-6.945,9s-6.945-4.038-6.946-9C8.929,6.038,12.045,2.001,15.875,2.001z M22.82,20c-0.549,0-0.992,0.447-0.992,1
				s0.443,1,0.992,1c3.829,0,6.946,3.141,6.946,7c0,0.551-0.445,1-0.992,1H2.977c-0.546,0-0.992-0.449-0.992-1
				c0-3.859,3.117-7,6.945-7c0.549,0,0.992-0.447,0.992-1s-0.443-1-0.992-1C4.005,20,0,24.037,0,29c0,1.654,1.335,3,2.977,3h25.796
				c1.643,0,2.978-1.346,2.978-3C31.75,24.038,27.744,20,22.82,20z"/>
		</g>
	</g>
</g>
<g>
	<g id="menu">
		<g>
			<path d="M38.04,27.199c0.133,0.799,0.175,1.614,0.145,2.426h12.44v-2.426H38.04z"/>
			<path d="M28.959,2.938c0.275,0.782,0.458,1.598,0.56,2.426h21.106V2.938H28.959z"/>
			<path d="M30.222,15.068c-0.249,0.851-0.594,1.668-1.04,2.426h21.443v-2.426H30.222z"/>
		</g>
	</g>
</g>
</svg>
